<svg width="24" height="24" viewBox="0 0 24 24" fill="none" xmlns="http://www.w3.org/2000/svg">
<g id="Frame 81514084">
<path id="Vector" d="M5.5414 9.25V6C5.5414 3.23857 7.77998 1 10.5414 1H13.3747C16.1362 1 18.3747 3.23858 18.3747 6V9.25M8.29067 14.75V17.5M15.624 14.75V17.5M0.979219 10.2471C1.06743 12.5805 1.43738 17.2191 2.43316 20.894C2.64126 21.6619 3.20144 22.2676 3.98109 22.4264C5.36249 22.7077 7.89984 23 11.9569 23C16.014 23 18.5514 22.7077 19.9328 22.4264C20.7124 22.2676 21.2726 21.6619 21.4807 20.894C22.4765 17.2191 22.8465 12.5805 22.9347 10.2471C22.9555 9.69524 22.5092 9.25 21.9569 9.25H1.95695C1.40466 9.25 0.958355 9.69524 0.979219 10.2471Z" stroke="#505050" stroke-width="1.5" stroke-linecap="round" stroke-linejoin="round"/>
</g>
</svg>
