<svg width="25" height="24" viewBox="0 0 25 24" fill="none" xmlns="http://www.w3.org/2000/svg">
<g id="Frame 81514084">
<path id="Vector" d="M6.36404 9.5V6.54545C6.36404 4.03507 8.50507 2 11.1461 2H13.856C16.4971 2 18.6381 4.03507 18.6381 6.54546V9.5M8.9935 14.5V17M16.0073 14.5V17M2.00067 10.4065C2.08504 12.5278 2.43887 16.7447 3.39126 20.0854C3.59028 20.7836 4.12605 21.3342 4.87172 21.4785C6.19292 21.7343 8.6197 22 12.5 22C16.3803 22 18.8071 21.7343 20.1283 21.4785C20.8739 21.3342 21.4097 20.7836 21.6087 20.0854C22.5611 16.7447 22.915 12.5278 22.9993 10.4065C23.0193 9.90476 22.5924 9.5 22.0642 9.5H2.93579C2.40758 9.5 1.98072 9.90476 2.00067 10.4065Z" stroke="white" stroke-width="1.5" stroke-linecap="round" stroke-linejoin="round"/>
</g>
</svg>
