<svg width="24" height="24" viewBox="0 0 24 24" fill="none" xmlns="http://www.w3.org/2000/svg">
<g id="Icon / Outlined / Heart">
<rect width="24" height="24" fill="white"/>
<path id="Vector" d="M21.5922 6.61781C21.2794 5.88634 20.8284 5.22349 20.2644 4.66637C19.6999 4.10758 19.0345 3.66352 18.3041 3.35833C17.5468 3.04062 16.7346 2.87799 15.9145 2.8799C14.7641 2.8799 13.6416 3.19807 12.6662 3.79906C12.4328 3.94282 12.2111 4.10073 12.0011 4.27278C11.7911 4.10073 11.5694 3.94282 11.336 3.79906C10.3606 3.19807 9.23809 2.8799 8.08763 2.8799C7.2592 2.8799 6.45644 3.04016 5.69802 3.35833C4.96527 3.66472 4.30486 4.10544 3.7378 4.66637C3.17306 5.22286 2.72193 5.88587 2.40998 6.61781C2.08561 7.37906 1.91992 8.18745 1.91992 9.0194C1.91992 9.80422 2.07861 10.622 2.39364 11.454C2.65734 12.1493 3.03538 12.8704 3.51844 13.5987C4.28386 14.7512 5.33631 15.9532 6.64313 17.1716C8.80871 19.1914 10.9533 20.5867 11.0443 20.6432L11.5974 21.0015C11.8424 21.1594 12.1574 21.1594 12.4025 21.0015L12.9555 20.6432C13.0465 20.5843 15.1888 19.1914 17.3567 17.1716C18.6635 15.9532 19.716 14.7512 20.4814 13.5987C20.9644 12.8704 21.3448 12.1493 21.6062 11.454C21.9212 10.622 22.0799 9.80422 22.0799 9.0194C22.0822 8.18745 21.9165 7.37906 21.5922 6.61781ZM12.0011 7.03732C12.0011 4.63573 5.97286 7.03732 8.39981 7.03732C10.1057 7.03732 10.4189 7.03732 12.0011 7.03732C13.7998 7.03732 14.2087 7.03732 15.9145 7.03732C18.3415 7.03732 12.0011 4.63573 12.0011 7.03732Z" fill="#BA0000"/>
</g>
</svg>
