<svg width="100" height="40" viewBox="0 0 100 40" fill="none" xmlns="http://www.w3.org/2000/svg">
<g id="Frame 81514247">
<path id="&#208;&#174;&#208;&#147;" d="M19.2805 40C15.9668 40 13.2805 37.3137 13.2805 34V26.7504C13.2805 24.7568 11.6818 23.1316 9.68848 23.0987C7.64821 23.0651 5.97621 24.7098 5.97621 26.7504V37.0119C5.97621 38.6622 4.63839 40 2.9881 40C1.33782 40 0 38.6622 0 37.0119V3.04826C0 1.39797 1.33782 0.0601496 2.9881 0.0601496C4.63839 0.0601496 5.97621 1.39797 5.97621 3.04825V13.3704C5.97621 15.3874 7.61132 17.0226 9.62833 17.0226C11.6453 17.0226 13.2805 15.3874 13.2805 13.3704V6C13.2805 2.68629 15.9668 0 19.2805 0H60.6438C63.9575 0 66.6438 2.68629 66.6438 6V34C66.6438 37.3137 63.9575 40 60.6438 40H19.2805ZM25.2567 6.01504C21.943 6.01504 19.2567 8.70133 19.2567 12.015V27.9335C19.2567 31.2438 21.9376 33.9287 25.2479 33.9335L54.6114 33.9762C57.9235 33.9811 60.613 31.3012 60.6201 27.9892L60.6546 12.028C60.6618 8.70923 57.9734 6.01504 54.6546 6.01504H25.2567Z" fill="black"/>
<path id="&#208;&#174;&#208;&#147;_2" d="M84.789 6.07513C81.4753 6.07513 78.789 8.76142 78.789 12.0751V36.9817C78.789 38.6486 77.4377 39.9999 75.7707 39.9999C74.1038 39.9999 72.7524 38.6486 72.7524 36.9817V6.12025C72.7524 2.80654 75.4387 0.120239 78.7524 0.120239H97.0225C98.6669 0.120239 99.9999 1.45329 99.9999 3.09768C99.9999 4.74208 98.6669 6.07513 97.0225 6.07513H84.789Z" fill="black"/>
</g>
</svg>
